<svg width="18" height="17" viewBox="0 0 18 17" fill="none" xmlns="http://www.w3.org/2000/svg">
<path d="M13.6084 4.72501L9.44176 0.558339C9.19759 0.314172 8.80176 0.314172 8.55843 0.558339L4.39176 4.72501C4.14676 4.96917 4.14676 5.36501 4.39176 5.60834C4.63676 5.85167 5.03092 5.85334 5.27509 5.60834L8.37509 2.50834V11C8.37509 11.345 8.65509 11.625 9.00009 11.625C9.34509 11.625 9.62509 11.345 9.62509 11V2.50834L12.7251 5.60834C12.8468 5.73084 13.0068 5.79167 13.1668 5.79167C13.3268 5.79167 13.4868 5.73167 13.6084 5.60834C13.8526 5.36417 13.8526 4.96917 13.6084 4.72501Z" fill="#6E767D"/>
<path d="M15.4234 16.7867H2.57675C1.52341 16.7867 0.666748 15.93 0.666748 14.8767V10.1667C0.666748 9.82166 0.946748 9.54166 1.29175 9.54166C1.63675 9.54166 1.91675 9.82166 1.91675 10.1667V14.8767C1.91675 15.2408 2.21258 15.5367 2.57675 15.5367H15.4234C15.7876 15.5367 16.0834 15.2408 16.0834 14.8767V10.1667C16.0834 9.82166 16.3634 9.54166 16.7084 9.54166C17.0534 9.54166 17.3334 9.82166 17.3334 10.1667V14.8767C17.3334 15.93 16.4767 16.7867 15.4234 16.7867Z" fill="#6E767D"/>
</svg>
