<svg width="18" height="18" viewBox="0 0 18 18" fill="none" xmlns="http://www.w3.org/2000/svg">
<path d="M9.00008 17.9583C4.06008 17.9583 0.041748 13.94 0.041748 9.00001C0.041748 4.06001 4.06008 0.0416718 9.00008 0.0416718C13.9401 0.0416718 17.9584 4.06001 17.9584 9.00001C17.9584 13.94 13.9401 17.9583 9.00008 17.9583ZM9.00008 1.29167C4.75008 1.29167 1.29175 4.75001 1.29175 9.00001C1.29175 13.25 4.75008 16.7083 9.00008 16.7083C13.2501 16.7083 16.7084 13.25 16.7084 9.00001C16.7084 4.75001 13.2501 1.29167 9.00008 1.29167Z" fill="#1D9BF0"/>
<path d="M9.00005 13.2625C7.42338 13.2625 5.97255 12.4708 5.12005 11.1425C4.93338 10.8525 5.01755 10.4675 5.30838 10.28C5.59838 10.0917 5.98505 10.1767 6.17171 10.4683C6.79421 11.4367 7.85171 12.0142 9.00088 12.0142C10.15 12.0142 11.2075 11.4367 11.8309 10.4692C12.0175 10.1775 12.4042 10.0942 12.6942 10.2817C12.9859 10.4683 13.0692 10.855 12.8825 11.145C12.0284 12.4733 10.5775 13.2658 9.00088 13.2658L9.00005 13.2625Z" fill="#1D9BF0"/>
<path d="M11.2817 8.11334C11.9619 8.11334 12.5134 7.56191 12.5134 6.88168C12.5134 6.20145 11.9619 5.65001 11.2817 5.65001C10.6015 5.65001 10.05 6.20145 10.05 6.88168C10.05 7.56191 10.6015 8.11334 11.2817 8.11334Z" fill="#1D9BF0"/>
<path d="M6.71848 8.11334C7.39871 8.11334 7.95015 7.56191 7.95015 6.88168C7.95015 6.20145 7.39871 5.65001 6.71848 5.65001C6.03825 5.65001 5.48682 6.20145 5.48682 6.88168C5.48682 7.56191 6.03825 8.11334 6.71848 8.11334Z" fill="#1D9BF0"/>
</svg>
