<svg width="18" height="18" viewBox="0 0 18 18" fill="none" xmlns="http://www.w3.org/2000/svg">
<path d="M14.8335 7.74999V6.33333H11.1668V11.6667H12.5835V10H14.2502V8.58333H12.5835V7.74999H14.8335ZM8.75016 6.33333H10.1668V11.6667H8.75016V6.33333ZM5.75016 7.66666C6.0835 7.66666 6.50016 7.83333 6.75016 8.08333L7.75016 7.24999C7.25016 6.66666 6.50016 6.33333 5.75016 6.33333C4.25016 6.33333 3.0835 7.49999 3.0835 9C3.0835 10.5 4.25016 11.6667 5.75016 11.6667C6.5835 11.6667 7.25016 11.3333 7.75016 10.75V8.66666H5.41683V9.66666H6.41683V10.1667C6.25016 10.25 6.00016 10.3333 5.75016 10.3333C5.00016 10.3333 4.41683 9.75 4.41683 9C4.41683 8.33333 5.00016 7.66666 5.75016 7.66666Z" fill="#1D9BF0"/>
<path d="M16.0834 0.683334H1.91675C0.883415 0.683334 0.041748 1.5225 0.041748 2.55583V15.4783C0.041748 16.51 0.883415 17.35 1.91675 17.35H16.0834C17.1167 17.35 17.9584 16.51 17.9584 15.4783V2.55583C17.9584 1.5225 17.1167 0.683334 16.0834 0.683334ZM16.7084 15.4783C16.7084 15.82 16.4284 16.1 16.0834 16.1H1.91675C1.57175 16.1 1.29175 15.82 1.29175 15.4783V2.55583C1.29175 2.2125 1.57175 1.93333 1.91675 1.93333H16.0834C16.4284 1.93333 16.7084 2.2125 16.7084 2.55583V15.4783Z" fill="#1D9BF0"/>
</svg>
